<svg width="30" height="30" viewBox="0 0 30 30" fill="none" xmlns="http://www.w3.org/2000/svg">
<path d="M14.6023 7.78279L5.0004 17.9524V28.9285C5.0004 29.2126 5.08819 29.4852 5.24445 29.6862C5.40072 29.8871 5.61267 30 5.83366 30L11.6697 29.9806C11.8899 29.9792 12.1008 29.8656 12.2562 29.6648C12.4116 29.464 12.4988 29.1923 12.4988 28.909V22.4992C12.4988 22.215 12.5866 21.9424 12.7428 21.7415C12.8991 21.5405 13.111 21.4276 13.332 21.4276H16.6651C16.8861 21.4276 17.0981 21.5405 17.2543 21.7415C17.4106 21.9424 17.4984 22.215 17.4984 22.4992V28.9043C17.498 29.0453 17.5193 29.185 17.5611 29.3154C17.6028 29.4458 17.6641 29.5643 17.7415 29.6642C17.8189 29.7641 17.9109 29.8433 18.0122 29.8974C18.1134 29.9514 18.222 29.9792 18.3317 29.9792L24.1656 30C24.3866 30 24.5985 29.8871 24.7548 29.6862C24.9111 29.4852 24.9989 29.2126 24.9989 28.9285V17.9451L15.3991 7.78279C15.2862 7.6658 15.1456 7.60201 15.0007 7.60201C14.8557 7.60201 14.7151 7.6658 14.6023 7.78279ZM29.7693 14.6949L25.4155 10.0799V0.803661C25.4155 0.590517 25.3496 0.386103 25.2324 0.235387C25.1152 0.0846713 24.9563 0 24.7905 0H21.8741C21.7083 0 21.5494 0.0846713 21.4322 0.235387C21.315 0.386103 21.2491 0.590517 21.2491 0.803661V5.66648L16.5865 0.733341C16.139 0.259836 15.5775 0.000946542 14.9981 0.000946542C14.4186 0.000946542 13.8571 0.259836 13.4096 0.733341L0.226805 14.6949C0.163522 14.7622 0.111165 14.8448 0.0727266 14.9381C0.0342879 15.0314 0.0105204 15.1335 0.00278216 15.2387C-0.0049561 15.3438 0.00348653 15.4498 0.0276277 15.5507C0.0517688 15.6516 0.0911353 15.7454 0.143478 15.8268L1.4715 17.9029C1.5237 17.9845 1.58791 18.0521 1.66044 18.1018C1.73298 18.1514 1.81242 18.1822 1.89422 18.1924C1.97603 18.2025 2.05858 18.1918 2.13716 18.1609C2.21574 18.1299 2.2888 18.0794 2.35216 18.0121L14.6023 5.03695C14.7151 4.91996 14.8557 4.85617 15.0007 4.85617C15.1456 4.85617 15.2862 4.91996 15.3991 5.03695L27.6497 18.0121C27.7129 18.0794 27.7859 18.13 27.8644 18.161C27.9428 18.1921 28.0253 18.2029 28.107 18.193C28.1888 18.183 28.2682 18.1525 28.3407 18.103C28.4133 18.0536 28.4775 17.9863 28.5298 17.9049L29.8579 15.8288C29.9101 15.747 29.9493 15.6527 29.9732 15.5513C29.9971 15.45 30.0051 15.3436 29.9969 15.2382C29.9886 15.1328 29.9643 15.0306 29.9253 14.9374C29.8862 14.8441 29.8332 14.7617 29.7693 14.6949Z" fill="#8C162C"/>
</svg>
