<svg width="50" height="50" viewBox="0 0 50 50" fill="none" xmlns="http://www.w3.org/2000/svg">
<g clip-path="url(#clip0_110_68)">
<path d="M28.1842 0.20364C23.2799 -0.426166 18.2989 0.412528 13.8711 2.61367C9.44343 4.81482 5.76788 8.27951 3.3093 12.5697C0.850759 16.8599 -0.280378 21.7826 0.0589497 26.7156C0.398276 31.6485 2.19283 36.3703 5.21567 40.2831C8.23849 44.1965 12.3538 47.1253 17.0413 48.6994C21.7286 50.2735 26.7775 50.4221 31.5494 49.1267C36.3215 47.8314 40.6023 45.15 43.8503 41.4218C47.0983 37.6933 49.1674 33.0858 49.7968 28.1811C50.6404 21.6051 48.8372 14.9634 44.7843 9.71671C40.7311 4.47 34.7602 1.0481 28.1842 0.20364Z" fill="black"/>
<path d="M18.074 26.5799C18.0838 26.5997 18.1001 26.6155 18.1201 26.6246C18.1401 26.6338 18.1628 26.6357 18.184 26.6299L22.184 25.7674L20.5015 24.0624L18.104 26.4599C18.0851 26.4727 18.0717 26.4919 18.0661 26.5141C18.0606 26.5363 18.0634 26.5597 18.074 26.5799Z" fill="white"/>
<path d="M36.8044 9.40517C36.2468 9.40572 35.6968 9.53133 35.1942 9.77267C34.6916 10.014 34.2497 10.365 33.9009 10.7998C33.552 11.2346 33.3052 11.7421 33.1785 12.2849C33.0515 12.8277 33.048 13.3921 33.1683 13.9364C33.2887 14.4807 33.5294 14.9912 33.8727 15.4301C34.2163 15.8691 34.6541 16.2253 35.1535 16.4728C35.6532 16.7203 36.2018 16.8525 36.7593 16.8599C37.3166 16.8672 37.8683 16.7494 38.3744 16.5152L35.8392 13.9802C35.8102 13.9511 35.7872 13.9167 35.7715 13.8787C35.7555 13.8407 35.7474 13.8 35.7474 13.7589C35.7474 13.7178 35.7555 13.6771 35.7715 13.6391C35.7872 13.6012 35.8102 13.5667 35.8392 13.5377L39.1518 10.2277C38.4866 9.69279 37.6579 9.40244 36.8044 9.40517Z" fill="white"/>
<path d="M39.6067 10.6576L36.5017 13.7501L38.9366 16.1851C39.116 16.0592 39.2834 15.9168 39.4366 15.7601C40.1041 15.0882 40.4924 14.1887 40.5241 13.2422C40.5555 12.2958 40.2279 11.3724 39.6067 10.6576Z" fill="white"/>
<path d="M33.3939 16.3652H33.339C33.2744 16.3645 33.2099 16.3704 33.1465 16.3827H33.1241C33.0544 16.3977 32.9861 16.4177 32.9189 16.4427L32.8666 16.4677C32.8163 16.4886 32.7677 16.5136 32.7215 16.5427L32.6666 16.5777C32.6061 16.6194 32.5491 16.6662 32.4965 16.7177L23.289 25.9275L24.429 27.0675L34.1791 18.5102C34.2343 18.4617 34.2843 18.4081 34.3291 18.3502L34.3715 18.2952C34.4049 18.2462 34.4349 18.1953 34.4616 18.1427C34.4765 18.1127 34.489 18.0827 34.5015 18.0527C34.5183 18.0127 34.5326 17.9717 34.5439 17.9302C34.5439 17.9002 34.5616 17.8702 34.5689 17.8402C34.5814 17.7781 34.5898 17.7156 34.5939 17.6527V17.5702C34.5939 17.5252 34.5939 17.4802 34.5939 17.4352C34.5939 17.3902 34.5939 17.3752 34.5814 17.3452C34.5352 17.1092 34.4201 16.8922 34.2506 16.7217C34.0811 16.5514 33.8648 16.435 33.6291 16.3877H33.5814C33.5198 16.3756 33.457 16.3681 33.3939 16.3652Z" fill="white"/>
<path d="M20.9316 23.6199L22.8216 25.4999L32.0541 16.2674C32.3546 15.9736 32.7462 15.7911 33.1639 15.7499C31.5317 14.4999 29.7514 14.8274 20.9316 23.6199Z" fill="white"/>
<path d="M34.6991 18.8701L34.5866 18.9801L24.8367 27.5351L26.4942 29.1901C30.6041 25.3026 34.2517 21.6001 34.6991 18.8701Z" fill="white"/>
<path d="M10.3793 38.9124C10.3844 38.9302 10.3948 38.9459 10.4091 38.9575C10.4234 38.9691 10.4409 38.9761 10.4593 38.9773L14.7093 39.2697L12.3268 36.8875L10.3993 38.8125C10.3868 38.8255 10.3783 38.8418 10.3748 38.8593C10.3712 38.8773 10.3728 38.8956 10.3793 38.9124Z" fill="white"/>
<path d="M12.7716 36.4451L15.2841 38.9576C15.3139 38.9893 15.3538 39.0099 15.3971 39.016C15.4403 39.0218 15.4843 39.0125 15.5216 38.9898C15.5606 38.9707 15.5916 38.9384 15.6094 38.8989C15.6272 38.859 15.6306 38.8143 15.6191 38.7724L15.1966 36.9675C15.1693 36.8503 15.1817 36.7276 15.232 36.6186C15.2822 36.5096 15.3674 36.4204 15.4741 36.3648C19.8791 34.1576 23.4316 31.8849 26.0391 29.6148L24.2891 27.865L20.5391 28.6725L12.7716 36.4451Z" fill="white"/>
<path d="M23.7519 27.335L22.8119 26.395L21.5119 27.6925C21.5025 27.7038 21.4974 27.718 21.4974 27.7325C21.4974 27.7472 21.5025 27.7613 21.5119 27.7725C21.5178 27.7858 21.5286 27.7966 21.5419 27.8025C21.5553 27.8085 21.5703 27.8094 21.5844 27.805L23.7519 27.335Z" fill="white"/>
<path d="M39.6942 12.6726C39.6814 12.6332 39.6602 12.5971 39.6323 12.5666C39.6044 12.536 39.5704 12.5119 39.5323 12.4957C39.4942 12.4794 39.4532 12.4715 39.4116 12.4725C39.3704 12.4735 39.3297 12.4833 39.2924 12.5013C39.2552 12.5193 39.2221 12.5451 39.1956 12.5769C39.1692 12.6087 39.1497 12.6458 39.139 12.6857C39.1279 12.7256 39.1256 12.7674 39.1323 12.8082C39.1387 12.8491 39.1538 12.8881 39.1768 12.9226C39.2515 13.0729 39.2811 13.2417 39.2619 13.4084C39.243 13.5753 39.1759 13.733 39.0692 13.8626C39.0343 13.9049 39.0119 13.9564 39.0049 14.0109C38.998 14.0654 39.0067 14.1208 39.0299 14.1706C39.0532 14.2204 39.0904 14.2625 39.1366 14.2921C39.1829 14.3216 39.2369 14.3374 39.2916 14.3376C39.3343 14.3371 39.3762 14.3275 39.4145 14.3094C39.4529 14.2912 39.4869 14.265 39.5142 14.2326C39.6913 14.0174 39.8023 13.7558 39.8343 13.4791C39.866 13.2024 39.8174 12.9223 39.6942 12.6726Z" fill="black"/>
</g>
<defs>
<clipPath id="clip0_110_68">
<rect width="50" height="50" fill="white"/>
</clipPath>
</defs>
</svg>
